<?xml version="1.0" encoding="utf-8"?>
<!-- Generator: Adobe Illustrator 27.2.0, SVG Export Plug-In . SVG Version: 6.00 Build 0)  -->
<svg version="1.1" id="Capa_1" xmlns="http://www.w3.org/2000/svg" xmlns:xlink="http://www.w3.org/1999/xlink" x="0px" y="0px"
	 viewBox="0 0 156.31 273.66" style="enable-background:new 0 0 156.31 273.66;" xml:space="preserve">
<style type="text/css">
	.st0{fill:#FFFFFF;}
</style>
<g>
	<path class="st0" d="M131.04,9.76c8.61,0,15.57,6.96,15.57,15.57v238.63H9.7V9.76H131.04 M131.04,0H9.7H0v9.7v254.26v9.7h9.7
		h136.91h9.7v-9.7V25.33C156.31,11.35,144.96,0,131.04,0L131.04,0z"/>
	<path class="st0" d="M45.92,91.62L32.92,48.21h-0.17v43.41h-9.36V26.13H34.4l11.69,39.02h0.17V26.13h9.36v65.49L45.92,91.62
		L45.92,91.62z"/>
	<path class="st0" d="M79.01,35.31v18.54H93.5v9.13H79.01v19.45h17.97v9.18h-27.9V26.13h27.9v9.18H79.01z"/>
	<path class="st0" d="M131.78,39.88v1.65l-9.53,0.91v-2.45c0-3.77-1.77-5.7-5.02-5.7s-5.02,1.94-5.02,5.7v0.86
		c0,3.82,1.65,7.13,8.33,12.72c9.07,7.64,12.44,13.06,12.44,20.94v3.25c0,9.36-5.53,14.66-15.35,14.66s-15.35-5.31-15.35-14.66
		v-4.39l9.53-0.91v4.68c0,4.11,1.88,6.16,5.59,6.16c3.77,0,5.59-2.05,5.59-6.16v-2.17c0-4.11-1.94-7.36-8.61-13.01
		c-9.07-7.64-12.15-13.06-12.15-20.77v-1.43c0-9.36,5.31-14.66,14.78-14.66S131.78,30.52,131.78,39.88z"/>
	<path class="st0" d="M55.45,169.6v-45.47h-0.17l-8.21,36.11h-5.88l-8.21-36.11H32.8v45.47h-9.41v-65.49H36.4l7.76,35.14h0.17
		l7.64-35.14h13.35v65.49L55.45,169.6L55.45,169.6z"/>
	<path class="st0" d="M90.53,169.6l-2.17-14.89H77.41l-2.17,14.89h-9.93l11.3-65.49h12.61l11.3,65.49H90.53z M78.78,145.76h8.33
		l-3.99-27.61h-0.29L78.78,145.76z"/>
	<path class="st0" d="M123.17,169.6l-13.01-43.41h-0.17v43.41h-9.36v-65.49h11.01l11.69,39.02h0.17v-39.02h9.41v65.49L123.17,169.6
		L123.17,169.6z"/>
	<path class="st0" d="M37.71,182.1c10.67,0,16.49,5.82,16.49,16.54v5.25c0,10.78-5.82,16.54-16.49,16.54h-4.39v27.1h-9.93V182.1
		H37.71z M33.32,211.25h3.99c4.79,0,6.9-2.51,6.9-8.04v-3.88c0-5.53-2.17-8.04-6.9-8.04h-3.99V211.25z"/>
	<path class="st0" d="M76.84,219.86h-4.56v27.67h-9.93V182.1h14.32c10.67,0,16.49,5.82,16.49,16.54v4.68
		c0,6.9-2.45,11.81-7.02,14.38l9.07,29.84h-10.5L76.84,219.86z M72.22,210.73h3.99c4.79,0,6.9-2.51,6.9-8.04v-3.37
		c0-5.53-2.17-8.04-6.9-8.04h-3.99V210.73z"/>
	<path class="st0" d="M132.92,197.73v34.23c0,10.27-6.1,16.54-15.97,16.54s-15.97-6.28-15.97-16.54v-34.23
		c0-10.27,6.1-16.54,15.97-16.54S132.92,187.4,132.92,197.73z M110.84,197.78v34.06c0,4.85,2.17,7.47,6.1,7.47
		c3.94,0,6.1-2.62,6.1-7.47v-34.06c0-4.85-2.17-7.47-6.1-7.47C113.01,190.31,110.84,192.94,110.84,197.78z"/>
</g>
</svg>
